<?xml version="1.0" encoding="UTF-8"?> <svg xmlns="http://www.w3.org/2000/svg" viewBox="0 0 64 64"><defs><style>.cls-1{fill:#787878;}.cls-2{fill:#fff;}</style></defs><g id="Layer_2" data-name="Layer 2"><g id="Layer_1-2" data-name="Layer 1"><circle class="cls-1" cx="32" cy="32" r="32"></circle><g id="Iconly_Light-outline_Category" data-name="Iconly Light-outline Category"><g id="Category-6"><path id="Category-7" class="cls-2" d="M36.78,44a3.59,3.59,0,0,1-3.57-3.6V36.73a3.59,3.59,0,0,1,3.57-3.6h3.65A3.58,3.58,0,0,1,44,36.73V40.4A3.58,3.58,0,0,1,40.43,44Zm-1.89-7.27V40.4a1.91,1.91,0,0,0,1.89,1.92h3.65a1.91,1.91,0,0,0,1.89-1.92V36.73a1.91,1.91,0,0,0-1.9-1.92H36.78A1.91,1.91,0,0,0,34.89,36.73ZM23.57,44A3.58,3.58,0,0,1,20,40.4V36.73a3.58,3.58,0,0,1,3.57-3.6h3.65a3.59,3.59,0,0,1,3.57,3.6V40.4A3.59,3.59,0,0,1,27.22,44Zm-1.9-7.27V40.4a1.92,1.92,0,0,0,1.9,1.92h3.65a1.91,1.91,0,0,0,1.89-1.92V36.73a1.91,1.91,0,0,0-1.89-1.92H23.57A1.92,1.92,0,0,0,21.67,36.73Zm15.11-5.86a3.59,3.59,0,0,1-3.57-3.6V23.6A3.59,3.59,0,0,1,36.78,20h3.65A3.58,3.58,0,0,1,44,23.6v3.67a3.58,3.58,0,0,1-3.57,3.6ZM34.89,23.6v3.67a1.91,1.91,0,0,0,1.89,1.92h3.65a1.92,1.92,0,0,0,1.9-1.92V23.6a1.92,1.92,0,0,0-1.9-1.92H36.78A1.91,1.91,0,0,0,34.89,23.6ZM23.57,30.87A3.58,3.58,0,0,1,20,27.27V23.6A3.58,3.58,0,0,1,23.57,20h3.65a3.59,3.59,0,0,1,3.57,3.6v3.67a3.59,3.59,0,0,1-3.57,3.6Zm-1.9-7.27v3.67a1.92,1.92,0,0,0,1.9,1.92h3.65a1.91,1.91,0,0,0,1.89-1.92V23.6a1.91,1.91,0,0,0-1.89-1.92H23.57A1.92,1.92,0,0,0,21.67,23.6Z"></path></g></g></g></g></svg> 